<?xml version="1.0" encoding="utf-8"?>
<!-- Generator: Adobe Illustrator 23.1.1, SVG Export Plug-In . SVG Version: 6.00 Build 0)  -->
<svg version="1.1" id="katman_1" xmlns="http://www.w3.org/2000/svg" xmlns:xlink="http://www.w3.org/1999/xlink" x="0px" y="0px"
	 viewBox="0 0 53 53" style="enable-background:new 0 0 53 53;" xml:space="preserve">
<style type="text/css">
	.st0{fill:#FCFCFC;}
</style>
<g>
	<g>
		<path class="st0" d="M25,5.5c2.6-0.1,5.1,0.4,7.5,1.2C29.1,8,26.2,9.4,23.8,11c-1.7,1.2-3.1,2.4-4.1,3.6
			c-8.9,10.6,13.6,15.6-2.4,26.8C10.7,38.6,6,32.2,5.8,24.7C5.6,14.3,14.2,5.7,25,5.5"/>
	</g>
	<g>
		<path class="st0" d="M33.6,7.2c6.6,2.9,11.3,9.3,11.5,16.8c0.2,10.4-8.4,19.1-19.2,19.3c-2.6,0-5.1-0.4-7.4-1.2
			c3.4-1.3,6.3-2.7,8.7-4.3c1.7-1.2,3.1-2.4,4.1-3.6C40.1,23.3,17.6,18.4,33.6,7.2"/>
	</g>
</g>
</svg>
