<?xml version="1.0" encoding="utf-8"?>
<!-- Generator: Adobe Illustrator 23.1.1, SVG Export Plug-In . SVG Version: 6.00 Build 0)  -->
<svg version="1.1" id="katman_1" xmlns="http://www.w3.org/2000/svg" xmlns:xlink="http://www.w3.org/1999/xlink" x="0px" y="0px"
	 viewBox="0 0 54 53" style="enable-background:new 0 0 54 53;" xml:space="preserve">
<style type="text/css">
	.st0{fill:#FCFCFC;}
</style>
<g>
	<g>
		<path d="M22.9,11c2.4,0,4.7,0.3,6.8,1.1c-3.1,1.2-5.8,2.5-7.9,3.9C20.2,17,19,18.2,18,19.2C9.9,29,30.4,33.5,15.9,43.6
			c-6-2.7-10.3-8.5-10.4-15.3C5.1,19,13,11.1,22.9,11"/>
	</g>
	<g>
		<path d="M30.6,12.5c6,2.7,10.3,8.5,10.5,15.3c0.2,9.5-7.6,17.3-17.5,17.5c-2.4,0-4.7-0.3-6.8-1.1c3.1-1.2,5.7-2.5,7.9-3.9
			c1.6-1.1,2.8-2.2,3.8-3.3C36.5,27.2,16.1,22.6,30.6,12.5"/>
	</g>
</g>
</svg>
