<svg width="24" height="24" viewBox="0 0 24 24"
    xmlns="http://www.w3.org/2000/svg">
    <path fill="currentColor" fill-rule="evenodd" clip-rule="evenodd" d="M11.752 3.81633C11.6021 3.89961 11.4181 4.03009 11.1281 4.23722L5.86023 8.00001L12 12.3856L18.1398 8.00001L12.8719 4.23722C12.5819 4.03009 12.3979 3.89961 12.2481 3.81633C12.1094 3.73926 12.0445 3.72891 12 3.72891C11.9555 3.72891 11.8906 3.73926 11.752 3.81633ZM18.5 8.9716L12.5 13.2573V20.0284L17.8719 16.1914C18.0843 16.0396 18.2167 15.9445 18.3121 15.8624C18.3999 15.7868 18.4287 15.745 18.4446 15.7142C18.4604 15.6834 18.4777 15.6356 18.4882 15.5202C18.4995 15.3949 18.5 15.2319 18.5 14.9708V8.9716ZM11.5 20.0284V13.2573L5.5 8.9716V14.9708C5.5 15.2319 5.50047 15.3949 5.51182 15.5202C5.52226 15.6356 5.53956 15.6834 5.55542 15.7142C5.57128 15.745 5.60006 15.7868 5.68789 15.8624C5.78331 15.9445 5.91566 16.0396 6.12814 16.1914L11.5 20.0284ZM11.2662 2.94221C11.4883 2.8188 11.724 2.72891 12 2.72891C12.276 2.72891 12.5117 2.8188 12.7338 2.94221C12.9392 3.05636 13.1694 3.22081 13.4319 3.40836L19.2906 7.59314C19.422 7.687 19.5 7.83853 19.5 8.00001V14.9906C19.5 15.2259 19.5 15.4346 19.4841 15.6104C19.4668 15.8011 19.4287 15.9872 19.3338 16.1718C19.2388 16.3563 19.1095 16.4955 18.9643 16.6204C18.8305 16.7356 18.6607 16.8568 18.4692 16.9936L12.2906 21.4069C12.1168 21.5311 11.8832 21.5311 11.7094 21.4069L5.53076 16.9936C5.33928 16.8568 5.16948 16.7355 5.03566 16.6204C4.8905 16.4955 4.76122 16.3563 4.66625 16.1718C4.57128 15.9872 4.53315 15.8011 4.51589 15.6104C4.49998 15.4346 4.49999 15.2259 4.5 14.9906L4.5 8.00001C4.5 7.83853 4.57798 7.687 4.70938 7.59314L10.5681 3.40835C10.8306 3.2208 11.0608 3.05635 11.2662 2.94221Z"/>
</svg>
