<svg viewBox="0 0 24 24" xmlns="http://www.w3.org/2000/svg"><path fill-rule="evenodd" clip-rule="evenodd" d="M11.752 3.816c-.15.084-.334.214-.624.421L5.86 8 12 12.386 18.14 8l-5.268-3.763a7.523 7.523 0 00-.624-.42c-.139-.078-.204-.088-.248-.088-.044 0-.11.01-.248.087zM18.5 8.972l-6 4.285v6.771l5.372-3.837c.212-.151.345-.246.44-.329a.508.508 0 00.133-.148.509.509 0 00.043-.194c.012-.125.012-.288.012-.55V8.973zm-7 11.056v-6.77l-6-4.286v5.999c0 .26 0 .424.012.55.01.115.028.162.043.193.016.031.045.073.133.148.095.082.228.178.44.33l5.372 3.836zm-.234-17.086c.222-.123.458-.213.734-.213.276 0 .512.09.734.213.205.114.435.279.698.466l5.859 4.185A.5.5 0 0119.5 8v6.99c0 .236 0 .445-.016.62-.017.191-.055.377-.15.562a1.483 1.483 0 01-.37.448c-.133.116-.303.237-.495.374l-6.178 4.413a.5.5 0 01-.582 0l-6.178-4.413c-.192-.137-.362-.259-.495-.374a1.483 1.483 0 01-.37-.448 1.483 1.483 0 01-.15-.562c-.016-.175-.016-.384-.016-.62V8a.5.5 0 01.21-.407l5.858-4.185a7.96 7.96 0 01.698-.466z"/></svg>